PathFileType	4	(X/Y/Z)	E:\Qualisys_Data\Carbon_Farble_Plate\Data\Amateur_Runner\S2\T1\S2T1V13_c3d.trc
DataRate	CameraRate	NumFrames	NumMarkers	Units	OrigDataRate	OrigDataStartFrame	OrigNumFrames
200.000000	200.000000	4	39	mm	200.000000	192	308
Frame#	Time	LSHO			RSHO			LICST			RICST			LASIS			LHEEL			RASIS			LTROC			RTROC			SACR			LTH1			LSK4			LTH2			LTH3			RHM5			LSK2			LTH4			RTH1			LTOE			RTH2			RTH3			RTH4			LLEP			RLEP			LSK1			LSK3			RSK1			LHM5			RSK2			LFT1			RSK3			RSK4			LLME			RLME			RTOE			RHEEL			RFT1			RFT2			LFT2			
		X1	Y1	Z1	X2	Y2	Z2	X3	Y3	Z3	X4	Y4	Z4	X5	Y5	Z5	X6	Y6	Z6	X7	Y7	Z7	X8	Y8	Z8	X9	Y9	Z9	X10	Y10	Z10	X11	Y11	Z11	X12	Y12	Z12	X13	Y13	Z13	X14	Y14	Z14	X15	Y15	Z15	X16	Y16	Z16	X17	Y17	Z17	X18	Y18	Z18	X19	Y19	Z19	X20	Y20	Z20	X21	Y21	Z21	X22	Y22	Z22	X23	Y23	Z23	X24	Y24	Z24	X25	Y25	Z25	X26	Y26	Z26	X27	Y27	Z27	X28	Y28	Z28	X29	Y29	Z29	X30	Y30	Z30	X31	Y31	Z31	X32	Y32	Z32	X33	Y33	Z33	X34	Y34	Z34	X35	Y35	Z35	X36	Y36	Z36	X37	Y37	Z37	X38	Y38	Z38	X39	Y39	Z39	

193	0.96	958.21728515625	1454.435791015625	-429.9913635253906	1022.792602539062	1422.906005859375	-123.6184310913086	923.730712890625	988.999267578125	-430.0174255371094	944.1362915039062	968.9334716796876	-126.5093078613281	983.5800170898438	940.6615600585938	-412.1189575195312	710.4364624023438	347.0821533203125	-322.8253479003906	999.6661376953124	921.3552856445312	-152.3265228271484	863.6234741210938	864.5848388671875	-436.06982421875	845.1718139648438	873.8283081054688	-128.9266815185547	843.7314453125	1022.148315429688	-269.6558837890625	1077.494506835938	674.9636840820312	-447.2225341796875	877.0387573242188	434.0678100585938	-416.2962646484375	1000.470825195312	640.3612670898438	-451.8458251953125	1118.176025390625	581.2764892578125	-429.3163146972656	705.652099609375	56.37451171875	-166.3031921386719	962.686767578125	483.5789489746094	-433.3896179199219	1038.6689453125	548.0527954101562	-430.612060546875	926.42724609375	599.0391845703125	-133.9169158935547	840.9717407226562	145.0334167480469	-364.5308837890625	851.0808715820312	616.9877319335938	-130.5804443359375	902.9130249023438	503.0360717773438	-159.6609802246094	826.3219604492188	524.680419921875	-150.1337127685547	1083.559448242188	518.0422973632812	-432.7071533203125	843.5883178710938	480.8149108886719	-148.7909698486328	1003.434387207031	414.0966186523438	-426.5103149414062	916.68505859375	365.3264770507812	-414.0751037597656	815.3617553710938	356.5288391113281	-153.4613647460938	789.4257202148438	179.2808685302734	-421.4452514648438	749.308349609375	400.7908325195312	-139.1279449462891	699.187255859375	323.0819396972656	-292.521484375	758.466064453125	271.8679504394531	-166.1469421386719	694.1593627929688	318.4526977539062	-153.274658203125	747.9541625976562	309.5299377441406	-384.5184631347656	619.0878295898438	145.0307922363281	-191.1856994628906	760.3507080078125	49.04572677612305	-232.1325988769531	550.0441284179688	151.3800048828125	-248.096923828125	555.4298706054688	120.7762908935547	-278.6796569824219	541.6608276367188	128.9378814697266	-221.9931945800781	685.9325561523438	330.2083129882812	-345.1786499023438
194	0.965	972.7274780273438	1458.952514648438	-429.7060852050781	1041.21826171875	1427.91015625	-124.8895874023438	941.77197265625	994.39990234375	-429.8486938476562	963.5968627929688	972.508544921875	-126.669563293457	1001.245910644531	945.7659301757812	-412.1722106933594	737.0048217773438	335.8526611328125	-322.3307189941406	1018.530090332031	924.7850952148438	-153.2026062011719	882.200927734375	870.2332763671875	-437.3836059570312	863.2365112304688	879.2640991210938	-128.6417388916016	861.9436645507812	1026.853149414062	-268.2386779785156	1097.302978515625	681.255859375	-446.2669067382812	901.0953369140624	430.1299133300781	-414.63427734375	1020.873779296875	645.87109375	-452.35400390625	1138.736206054688	588.2025146484375	-428.0940856933594	707.8489379882812	57.14664840698242	-164.9574737548828	983.9583129882812	483.7430725097656	-432.5285034179688	1059.61474609375	554.3333129882812	-430.635009765625	939.33740234375	603.7716674804688	-133.3056945800781	877.8370971679688	140.9844360351562	-363.8152465820312	864.4415283203125	623.4811401367188	-129.02685546875	913.2103881835938	508.6507873535156	-158.5589447021484	836.4332885742188	531.4249877929688	-149.0082550048828	1104.320678710938	524.078369140625	-431.4033813476562	852.9602661132812	487.0948486328125	-147.4258117675781	1027.656005859375	417.2189331054688	-427.4718322753906	943.1895141601562	363.84423828125	-413.5623474121094	822.0443115234375	363.4289245605469	-150.9414367675781	824.5817260742188	172.6464538574219	-420.7279663085938	756.244140625	407.8306579589844	-137.5303344726562	730.5826416015625	310.6424255371094	-292.1452026367188	767.609619140625	280.7289428710938	-162.0576629638672	700.8740234375	325.6716613769531	-152.0049438476562	777.2304077148438	299.8480834960938	-383.1362609863281	625.7063598632812	151.2651062011719	-189.4949188232422	761.8914794921875	49.46828842163086	-230.6272735595703	557.3671875	160.4521484375	-246.7144317626953	562.3871459960938	130.4104309082031	-277.6565856933594	548.3164672851562	138.1403045654297	-221.0849151611328	713.8782958984375	317.7456359863281	-344.8117370605469
195	0.97	987.3158569335938	1463.75390625	-429.4079895019531	1059.571533203125	1433.163452148438	-126.1192474365234	959.6940307617188	999.5274047851562	-429.5110778808594	983.2745361328124	976.3916625976562	-127.250846862793	1018.855895996094	950.6511840820312	-412.0743408203125	764.1361694335938	325.0273742675781	-321.6469421386719	1037.583251953125	928.4699096679688	-153.6655883789062	900.4524536132812	875.6341552734375	-438.1597290039062	881.5706787109375	884.1431884765625	-128.751953125	880.2277221679688	1031.122314453125	-267.179443359375	1117.240844726562	687.5006103515625	-445.5209350585938	924.36279296875	426.782958984375	-414.0819702148438	1041.359497070312	651.44091796875	-452.2844848632812	1158.735595703125	594.4339599609375	-427.27294921875	710.4069213867188	57.73329925537109	-163.8504486083984	1005.047119140625	483.7220153808594	-432.0448913574219	1080.547607421875	560.2782592773438	-430.9999389648438	952.7174682617188	608.7136840820312	-133.7572631835938	915.0133666992188	137.32177734375	-363.3915405273438	877.646240234375	629.7305297851562	-128.8361053466797	924.0640258789062	513.6196899414062	-157.8168029785156	848.024169921875	538.7026977539062	-147.6807250976562	1124.677856445312	530.034423828125	-430.2392883300781	862.7422485351562	493.5373229980469	-146.1044006347656	1051.314453125	419.3315124511719	-426.6705017089844	969.3812255859376	362.4834899902344	-412.6019897460938	829.9248657226562	370.8312683105469	-148.7462005615234	859.8242797851562	166.2741394042969	-420.2831726074219	763.6190185546875	415.1166381835938	-135.7747344970703	760.0955810546875	298.8005676269531	-290.9788818359375	772.693115234375	286.7593994140625	-160.3106384277344	708.5993041992188	333.1423950195312	-150.1858367919922	806.1389770507812	291.2990112304688	-382.5654296875	633.2802124023438	157.2725219726562	-187.8142852783203	763.849609375	50.25370025634766	-229.30712890625	565.7222290039062	169.7463989257812	-245.1055603027344	570.0028076171875	140.2706604003906	-276.6691284179688	555.943359375	147.5272521972656	-219.5675354003906	742.2318725585938	305.5802001953125	-343.6150817871094
196	0.975	1002.108032226562	1468.369750976562	-429.1781616210938	1077.588134765625	1438.181640625	-127.4324264526367	977.6558227539062	1005.108764648438	-429.4878845214844	1002.562255859375	980.4285278320312	-127.8785552978516	1036.396728515625	955.7705078125	-412.5861206054688	792.09130859375	313.9361877441406	-320.5296630859375	1055.908203125	932.0924682617188	-154.5040283203125	918.9953002929688	880.9336547851562	-439.2081604003906	899.5185546875	889.415771484375	-128.5189208984375	898.5645141601562	1035.780395507812	-266.4654541015625	1136.933349609375	693.2222290039062	-444.7240600585938	947.7940673828124	422.928955078125	-413.388427734375	1061.575805664062	656.918212890625	-452.4384460449219	1178.496459960938	600.2402954101562	-426.6437377929688	713.6456298828125	58.66853332519531	-162.348876953125	1025.656127929688	483.3953247070312	-431.7560729980469	1100.997680664062	565.9674072265625	-431.1145935058594	966.0672607421876	613.2650756835938	-132.7358856201172	952.0626831054688	134.0363464355469	-363.0343017578125	891.5377807617188	635.7496337890625	-127.1621017456055	935.1283569335938	518.6532592773438	-156.7864532470703	859.8369140625	545.4217529296875	-146.3423767089844	1144.397338867188	534.7920532226562	-429.4829406738281	873.109619140625	500.0832214355469	-144.6509552001953	1074.111694335938	421.27978515625	-425.925048828125	995.567138671875	360.4994506835938	-411.8932495117188	837.869873046875	378.15478515625	-146.0983276367188	895.5535888671875	160.4002685546875	-419.6634521484375	771.3765258789062	423.0241394042969	-134.2989807128906	788.501220703125	287.0747375488281	-290.2549438476562	780.7869873046875	294.0101013183594	-157.2733764648438	716.6594848632812	340.2768859863281	-148.5071716308594	835.8982543945312	282.2588500976562	-381.5179748535156	641.2662353515625	163.1919403076172	-185.7273406982422	766.5425415039062	50.27085494995117	-227.5510864257812	575.498046875	179.0702667236328	-243.1372680664062	577.968505859375	149.7642364501953	-275.1341857910156	564.2255859375	157.2276306152344	-218.3090972900391	771.1052856445312	293.4668884277344	-342.4455871582031
